<svg id="Livello_1" data-name="Livello 1" xmlns="http://www.w3.org/2000/svg" viewBox="0 0 595.28 595.28"><defs></defs><path class="cls-1" d="M220.76,382.2q0-4.79,2-7.47A6.55,6.55,0,0,1,228.3,372a7.71,7.71,0,0,1,4,1,7.47,7.47,0,0,1,2.79,3V364h1v28.36h-1V389.2a6.87,6.87,0,0,1-2.79,2.63,8.51,8.51,0,0,1-4,.93,6.43,6.43,0,0,1-5.49-2.75,12.56,12.56,0,0,1-2-7.55Zm1,.39a11.67,11.67,0,0,0,1.69,6.71,5.41,5.41,0,0,0,4.76,2.47,7.83,7.83,0,0,0,4.23-1.1,6.5,6.5,0,0,0,2.6-3.22v-9.37c-1.14-3.36-3.41-5-6.79-5a5.52,5.52,0,0,0-4.78,2.42Q221.79,377.88,221.79,382.59Z"/><path class="cls-1" d="M249.57,392.76a8,8,0,0,1-4.44-1.3,8.93,8.93,0,0,1-3.17-3.57,11.11,11.11,0,0,1-1.14-5V382a11.7,11.7,0,0,1,1.1-5.08,8.79,8.79,0,0,1,3.05-3.6,7.4,7.4,0,0,1,4.23-1.3,7,7,0,0,1,5.47,2.39,9.06,9.06,0,0,1,2.12,6.26v1.05h-15v1.09a10,10,0,0,0,1,4.5,8,8,0,0,0,2.82,3.26,7.06,7.06,0,0,0,3.91,1.18,8.1,8.1,0,0,0,3.43-.67,7.06,7.06,0,0,0,2.5-2.07l.7.5A7.52,7.52,0,0,1,249.57,392.76ZM249.2,373a6.53,6.53,0,0,0-4.95,2.17,9.25,9.25,0,0,0-2.38,5.53h13.92v-.24a8.31,8.31,0,0,0-.86-3.77,6.62,6.62,0,0,0-2.36-2.72A6.06,6.06,0,0,0,249.2,373Z"/><path class="cls-1" d="M273.76,387.5q0-3.63-6.2-4.95a12.19,12.19,0,0,1-5.19-2,4.27,4.27,0,0,1-1.46-3.42,4.37,4.37,0,0,1,1.85-3.62,7.72,7.72,0,0,1,4.83-1.43,8.12,8.12,0,0,1,5.19,1.55,5,5,0,0,1,2,4.16h-1a4.13,4.13,0,0,0-1.69-3.36,6.93,6.93,0,0,0-4.44-1.35,6.75,6.75,0,0,0-4.15,1.15,3.69,3.69,0,0,0-1,5,4.91,4.91,0,0,0,1.86,1.39,19.45,19.45,0,0,0,3.77,1.19,15.92,15.92,0,0,1,3.92,1.35,5.26,5.26,0,0,1,2.08,1.83,4.94,4.94,0,0,1,.65,2.6,4.51,4.51,0,0,1-1.94,3.8,8.31,8.31,0,0,1-5.08,1.44,8.86,8.86,0,0,1-5.42-1.52,4.67,4.67,0,0,1-2.06-3.92h1a4.12,4.12,0,0,0,1.86,3.27,8,8,0,0,0,4.62,1.18,7.08,7.08,0,0,0,4.35-1.25A3.69,3.69,0,0,0,273.76,387.5Z"/><path class="cls-1" d="M280,366.17a1,1,0,0,1,.29-.73,1,1,0,0,1,.72-.3,1,1,0,0,1,1,1,1,1,0,0,1-.31.72,1,1,0,0,1-.73.3,1,1,0,0,1-.72-.3A.94.94,0,0,1,280,366.17Zm1.51,26.22h-1v-20h1Z"/><path class="cls-1" d="M287.11,382.2a12.24,12.24,0,0,1,2-7.47,6.52,6.52,0,0,1,5.52-2.69,7.7,7.7,0,0,1,4,1,7.38,7.38,0,0,1,2.79,3v-3.66h1V392a8.79,8.79,0,0,1-2,6.18,7.11,7.11,0,0,1-5.52,2.23,7.83,7.83,0,0,1-3.68-.87,8.21,8.21,0,0,1-2.86-2.5l.7-.67a9.07,9.07,0,0,0,2.55,2.26,6.54,6.54,0,0,0,3.25.78,6.2,6.2,0,0,0,4.81-1.87,7.77,7.77,0,0,0,1.77-5.28v-3.06a7,7,0,0,1-2.8,2.61,8.57,8.57,0,0,1-4,.91,6.42,6.42,0,0,1-5.48-2.75,12.56,12.56,0,0,1-2-7.55Zm1,.39a11.65,11.65,0,0,0,1.7,6.73,5.47,5.47,0,0,0,4.76,2.45,7.6,7.6,0,0,0,4.31-1.18,6.31,6.31,0,0,0,2.51-3.29v-9.07c-1.09-3.46-3.34-5.19-6.78-5.19a5.53,5.53,0,0,0-4.79,2.42Q288.13,377.88,288.13,382.59Z"/><path class="cls-1" d="M309.79,377.07a8.35,8.35,0,0,1,2.88-3.68,7.11,7.11,0,0,1,4.21-1.35,6,6,0,0,1,4.78,1.82c1,1.22,1.56,3.05,1.58,5.5v13h-1V379.33a7.36,7.36,0,0,0-1.31-4.75,5,5,0,0,0-4.1-1.54,6.19,6.19,0,0,0-4.48,1.84,9.29,9.29,0,0,0-2.56,4.73v12.78h-1v-20h1Z"/><path class="cls-1" d="M336.68,392.76a8,8,0,0,1-4.44-1.3,8.93,8.93,0,0,1-3.17-3.57,11.11,11.11,0,0,1-1.14-5V382a11.7,11.7,0,0,1,1.1-5.08,8.79,8.79,0,0,1,3.05-3.6,7.4,7.4,0,0,1,4.23-1.3,7,7,0,0,1,5.47,2.39,9.06,9.06,0,0,1,2.12,6.26v1.05h-15v1.09a10,10,0,0,0,1,4.5,8,8,0,0,0,2.82,3.26,7.06,7.06,0,0,0,3.91,1.18,8.1,8.1,0,0,0,3.43-.67,7.06,7.06,0,0,0,2.5-2.07l.7.5A7.52,7.52,0,0,1,336.68,392.76ZM336.31,373a6.53,6.53,0,0,0-4.95,2.17,9.25,9.25,0,0,0-2.38,5.53H342.9v-.24a8.31,8.31,0,0,0-.86-3.77,6.62,6.62,0,0,0-2.36-2.72A6.06,6.06,0,0,0,336.31,373Z"/><path class="cls-1" d="M357.36,373.15l-1.29-.11a5.93,5.93,0,0,0-4.27,1.65,8.27,8.27,0,0,0-2.25,4.62v13.08h-1v-20h1v4.16a7.38,7.38,0,0,1,2.44-3.31,6.61,6.61,0,0,1,4.08-1.22,3.86,3.86,0,0,1,1.4.21Z"/><path class="cls-1" d="M373.52,387.5q0-3.63-6.2-4.95a12.19,12.19,0,0,1-5.19-2,4.27,4.27,0,0,1-1.46-3.42,4.37,4.37,0,0,1,1.85-3.62,7.72,7.72,0,0,1,4.83-1.43,8.12,8.12,0,0,1,5.19,1.55,5,5,0,0,1,2,4.16h-1a4.14,4.14,0,0,0-1.7-3.36,6.93,6.93,0,0,0-4.44-1.35,6.75,6.75,0,0,0-4.15,1.15,3.69,3.69,0,0,0-1,5,4.91,4.91,0,0,0,1.86,1.39,19.45,19.45,0,0,0,3.77,1.19,15.92,15.92,0,0,1,3.92,1.35,5.26,5.26,0,0,1,2.08,1.83,4.94,4.94,0,0,1,.65,2.6,4.51,4.51,0,0,1-1.94,3.8,8.31,8.31,0,0,1-5.08,1.44,8.86,8.86,0,0,1-5.42-1.52,4.67,4.67,0,0,1-2.06-3.92h1a4.12,4.12,0,0,0,1.86,3.27,8,8,0,0,0,4.62,1.18,7.08,7.08,0,0,0,4.35-1.25A3.69,3.69,0,0,0,373.52,387.5Z"/><path class="cls-1" d="M368.54,355H324l-43.18-71.2-5.24-8.63h0L226.9,194.83h44l75,122.9L368.54,355Zm0-160.12h-44L302,231.89l22.12,36.27Zm-97.18,87.23,22.14,36.52L271.44,355H226.9Z"/></svg>